# xmcd
#
# Track frame offsets:
#	150
#	14360
#	26955
#	41547
#	55781
#	70201
#	84853
#	100698
#	114744
#	129689
#	144473
#	159388
#	173895
#	189704
#	205361
#	219450
#	233952
#	248473
#	263425
#	279110
#
# Disc length: 3921 seconds
#
# Revision: 0
# Processed by: cddbd v1.5.2PL0 Copyright (c) Steve Scherf et al.
# Submitted via: EasyCDDAExtractor 16.0.6.1
#
DISCID=120f4f14
DTITLE=Συλλογικός δίσκος - Τα ρεμπέτικα Γ 1937-1960 15 Β
DYEAR=2010
DGENRE=Ρεμπέτικη
TTITLE0=Γεωργακοπούλου Ιωάννα-Μαυρίδης Χαράλαμπος - Μη σε πλανέψουν τα λεφτά [
TTITLE0=χασ. Κ. Σκαρβέλης, Αθ11.6.1940]
TTITLE1=Παγιουμτζής Στράτος - Γιατί δεν λες το ναι και συ [Μ. Χιώτης, Αθήνα 3.
TTITLE1=1941]
TTITLE2=Χατζηχρήστος Απόστολος - Γκρινιάρικο [απτ. Α. Χατζηχρήστος-Γ. Φωτίδας,
TTITLE2=Αθ 1940]
TTITLE3=Κηρομύτης Στέλιος-Τσιτσάνης Βασίλης - Γι' αυτά τα μαύρα μάτια σου [ζεϊ
TTITLE3=μπ. Β. Τσιτσάνης, Αθ 9.1940]
TTITLE4=Παγιουμτζής Στράτος - Γυρνώ σαν νυχτερίδα [χασ. Δ. Γκόγκος, Αθήνα 8.19
TTITLE4=39]
TTITLE5=Παγιουμτζής Στράτος - Σε ποιον το ντέρτι μου να πω[χασ.Κ.Κανούλας-Σ.Πα
TTITLE5=γιουμτζής,Αθ6.1940]
TTITLE6=Κάβουρας Γιώργος - Είμαι τεχνίτης ξακουστός [ζεϊμπ. Κ. Σκαρβέλης, Αθ 1
TTITLE6=940]
TTITLE7=Παγιουμτζής Στράτος-Περπινιάδης Στελλάκης - Θέλω σπίτι και λεφτά [χασ.
TTITLE7=Κ. Κανούλας-Γ. Καμβύσης, Αθ 3.1939]
TTITLE8=Μπερνιδάκης Γιάννης ή Μπαξές - Μικρό μελαχροινό [συρτός, Π. Τούντας-Γ.
TTITLE8=Μπερνιδάκης,Αθ2.1940]
TTITLE9=Βαμβακάρης Μάρκος-Χατζηχρήστος Απόστολος - Θα σπάσει το μπουζούκι μου 
TTITLE9=[ζεϊμπ. Σ. Περιστέρης, Αθ 1940]
TTITLE10=Παγιουμτζής Στράτος-Γεωργακοπούλου Ιωάννα - Σε ξανάειδα πάλι [χασ. Πα
TTITLE10=ν. Τούντας, Κ. Κοσμαδόπουλος, Αθ1.1940]
TTITLE11=Βαμβακάρης Μάρκος-Παπαϊωάννου Γιάννης - Απόψε θα περάσω [χασ. Σ. Περι
TTITLE11=στέρης-Μ. Μάτσας, Αθ 1939]
TTITLE12=Κάβουρας Γιώργος-Τσακίρης Δημήτρης - Τα ψαραδάκια [ζεϊμπ. Σ. Χρυσίνης
TTITLE12=, Αθ 1939 ή 40]
TTITLE13=Χατζηχρήστος Απόστολος-Παπαϊωάννου Γιάννης - Εσούρωσα κι απόψε [χασ. 
TTITLE13=Σ. Περιστέρης-Μ. Μάτσας, Αθ 1940]
TTITLE14=Παγιουμτζής Στράτος-Τσιτσάνης Βασίλης - Μιά βίλα 'γώ θα σού 'χτιζα [ζ
TTITLE14=εϊμπ. Β. Τσιτσάνης, Αθ 6.1940]
TTITLE15=Κάβουρας Γιώργος - Παραπονιέμαι στον ντουνιά [ζεϊμπ. Κ. Σκαρβέλης, Αθ
TTITLE15=1940]
TTITLE16=Βαμβακάρης Μάρκος-Χατζηχρήστος Απόστολος - Γειά σας φανταράκια μας [ζ
TTITLE16=εϊμπ. Μ. Βαμβακάρης, Αθ 1941]
TTITLE17=Παγιουμτζής Στράτος-Βαμβακάρης Μάρκος - Σε γελάσανε [χασ. Κ. Σκαρβέλη
TTITLE17=ς, Αθ. 1941]
TTITLE18=Βαμβακάρης Μάρκος-Χατζηχρήστος Απόστολος - Μουσολίνι άλλαξε γνώμη [χα
TTITLE18=σ. Μ. Βαμβακάρης-Γ. Φωτίδας,Αθ 1941]
TTITLE19=Περπινιάδης Στελλάκης - Άκου Ντούτσε μου τα νέα [χασ. Παν. Τούντας, Α
TTITLE19=θ 1941]
EXTD=
EXTT0=
EXTT1=
EXTT2=
EXTT3=
EXTT4=
EXTT5=
EXTT6=
EXTT7=
EXTT8=
EXTT9=
EXTT10=
EXTT11=
EXTT12=
EXTT13=
EXTT14=
EXTT15=
EXTT16=
EXTT17=
EXTT18=
EXTT19=
PLAYORDER=
